<!-- public/google.svg -->
<svg width="18" height="18" viewBox="0 0 48 48" xmlns="http://www.w3.org/2000/svg">
  <path fill="#EA4335" d="M24 9.5c3.54 0 6 1.54 7.38 2.83l5.42-5.33C33.89 3.36 29.47 1.5 24 1.5 14.97 1.5 7.09 6.98 3.64 14.86l6.9 5.36C12.33 14.29 17.62 9.5 24 9.5z"/>
  <path fill="#4285F4" d="M46.5 24.5c0-1.57-.14-3.08-.41-4.5H24v8.51h12.7c-.55 2.81-2.23 5.18-4.75 6.78l7.39 5.73C43.94 37.02 46.5 31.27 46.5 24.5z"/>
  <path fill="#FBBC05" d="M10.54 28.96A14.5 14.5 0 0 1 9.5 24c0-1.72.3-3.38.84-4.96l-6.9-5.36A22.42 22.42 0 0 0 1.5 24c0 3.62.87 7.03 2.44 10.02l6.6-5.06z"/>
  <path fill="#34A853" d="M24 46.5c5.48 0 10.08-1.8 13.44-4.9l-7.39-5.73C28.14 36.83 26.21 37.5 24 37.5c-6.38 0-11.76-4.79-13.06-11.06l-6.9 5.36C7.09 41.02 14.97 46.5 24 46.5z"/>
  <path fill="none" d="M1.5 1.5h45v45h-45z"/>
</svg>
